<svg xmlns="http://www.w3.org/2000/svg" viewBox="0 0 200 200"><defs><style>.cls-1{fill:#ededed;}.cls-2{fill:#00263a;}</style></defs><g id="SELLOS_Y_GRABADOS" data-name="SELLOS Y GRABADOS"><rect class="cls-1" x="-1.65" y="-2.64" width="205.32" height="205.32"/></g><g id="PLOTEO_DE_PLANOS" data-name="PLOTEO DE PLANOS"><path class="cls-2" d="M45.77,67.13l7.82,49.21L61,112.88c-.48-9.19,3-17.17,8.6-20.28A10.75,10.75,0,1,1,77,91.42c4.24.81,8.22,4,11.11,8.7l48.8-23,1.69-.8.8,1.69L151,102.79l.8,1.69-1.69.79-10.21,4.81,19.18-3-9-56.49ZM88.88,80.66l-1.14-6.75,56.68-9.55,1.14,6.75Z"/><path class="cls-2" d="M137.67,78.85,89,101.75,61.11,114.87l-7.21,3.39-7.6,3.57,11.64,24.74,75.33-35.44,16-7.55ZM91.48,108.21l37-17.41,1.92,4.08L78.28,119.4l-1.92-4.08,4.25-2ZM70.9,133.37a7.22,7.22,0,0,1-8.83-10.92,7.07,7.07,0,0,1,2.66-2.19,7.24,7.24,0,1,1,6.17,13.11Zm11.23-5.81-1.92-4.08,12.55-5.91L119.9,104.8l1.92,4.08-13,6.15Z"/></g></svg>