<svg xmlns="http://www.w3.org/2000/svg" viewBox="0 0 200 200"><defs><style>.cls-1{fill:#ededed;}.cls-2{fill:#00263a;}.cls-3{fill:#fff;}</style></defs><g id="SELLOS_Y_GRABADOS" data-name="SELLOS Y GRABADOS"><rect class="cls-1" x="-1.65" y="-2.64" width="205.32" height="205.32"/></g><g id="PLOTEO_DE_PLANOS" data-name="PLOTEO DE PLANOS"><path class="cls-2" d="M102.76,60.34h-.26a30.49,30.49,0,0,0,0,61h.12l.14,0a30.49,30.49,0,1,0,0-61Z"/><path class="cls-2" d="M132.49,115.16a3.43,3.43,0,0,1,1.41-.06c2.25.34,3.25-1,2.23-3.07s0-3.8,2.27-3.93,3-1.69,1.54-3.46-.79-3.73,1.4-4.32,2.56-2.28.79-3.72-1.55-3.47.47-4.52,2-2.74,0-3.79-2.23-3.07-.47-4.51,1.41-3.11-.79-3.71-2.82-2.55-1.4-4.32.73-3.34-1.54-3.47-3.29-1.9-2.27-3.93,0-3.42-2.23-3.07-3.62-1.17-3-3.37-.69-3.35-2.82-2.54-3.78-.4-3.67-2.67-1.37-3.13-3.28-1.89-3.78.39-4.15-1.86-2-2.77-3.61-1.17-3.62,1.17-4.44-1-2.53-2.29-3.77-.39a2.62,2.62,0,0,1-2.47,1.36h0a2.63,2.63,0,0,1-2.5-1.36c-1.25-1.9-3-1.72-3.77.39s-2.82,2.55-4.44,1S88.7,50.7,88.33,53,86.09,56,84.18,54.8s-3.39-.38-3.28,1.9-1.55,3.47-3.68,2.66-3.39.34-2.82,2.54-.78,3.72-3,3.38-3.26,1-2.23,3.07,0,3.79-2.27,3.93-3,1.69-1.55,3.46.8,3.72-1.4,4.32-2.55,2.27-.78,3.71,1.54,3.47-.48,4.51-2,2.75,0,3.79,2.24,3.08.48,4.53-1.41,3.11.78,3.71,2.83,2.54,1.4,4.32-.72,3.33,1.55,3.46,3.29,1.9,2.27,3.93,0,3.41,2.23,3.07a3.29,3.29,0,0,1,1.41,0L60.27,138.57H73.48l6.71,10.18,12.64-20.81c1.4-.73,2.87-.15,3.55,1.59.82,2.12,2.52,2.29,3.77.39a2.66,2.66,0,0,1,2.47-1.36v0a2.63,2.63,0,0,1,2.5,1.36c1.24,1.9,2.94,1.73,3.77-.4.67-1.74,2.14-2.32,3.54-1.59l12.64,20.82,6.71-10.18H145Zm-13.64,4.71-.48.26a33.36,33.36,0,0,1-15.66,3.9l-.07,0h-.08a33.3,33.3,0,0,1-15.66-3.9l-.48-.26a33.09,33.09,0,0,1,16.14-62.13l.06,0h.09a33.1,33.1,0,0,1,16.14,62.13Z"/><path class="cls-3" d="M79.39,96.12a4.79,4.79,0,0,0-1.32-4.22,6.43,6.43,0,0,0-4.25-2,5.42,5.42,0,0,0,1.25,4.58A5.55,5.55,0,0,0,79.39,96.12Z"/><path class="cls-3" d="M83.55,95.71a5.57,5.57,0,0,0,2.6-3.82,5.43,5.43,0,0,0-1.61-4.46,6.53,6.53,0,0,0-2.34,4.06A4.8,4.8,0,0,0,83.55,95.71Z"/><path class="cls-3" d="M86.85,102.31a5.59,5.59,0,0,0,2.09-4.12A5.43,5.43,0,0,0,86.76,94,6.43,6.43,0,0,0,85,98.3,4.8,4.8,0,0,0,86.85,102.31Z"/><path class="cls-3" d="M93.5,101.82a5.45,5.45,0,0,0-2.57-4,6.47,6.47,0,0,0-1.37,4.48,4.75,4.75,0,0,0,2.25,3.81A5.58,5.58,0,0,0,93.5,101.82Z"/><path class="cls-3" d="M98,109.41a5.53,5.53,0,0,0,.38-4.6,5.39,5.39,0,0,0-3.6-3.08,6.44,6.44,0,0,0,0,4.68A4.79,4.79,0,0,0,98,109.41Z"/><path class="cls-3" d="M80.31,90.32a4.76,4.76,0,0,0,1.24-4.24,6.42,6.42,0,0,0-2.43-4,5.41,5.41,0,0,0-1.5,4.5A5.54,5.54,0,0,0,80.31,90.32Z"/><path class="cls-3" d="M81.66,101.25a4.78,4.78,0,0,0-2.5-3.64A6.5,6.5,0,0,0,74.51,97a5.4,5.4,0,0,0,2.54,4A5.55,5.55,0,0,0,81.66,101.25Z"/><path class="cls-3" d="M85.67,105.77a4.81,4.81,0,0,0-3.26-3,6.43,6.43,0,0,0-4.66.41,5.42,5.42,0,0,0,3.36,3.34A5.53,5.53,0,0,0,85.67,105.77Z"/><path class="cls-3" d="M90.15,109a4.78,4.78,0,0,0-4-1.87,6.5,6.5,0,0,0-4.33,1.8A5.44,5.44,0,0,0,86,111.09,5.56,5.56,0,0,0,90.15,109Z"/><path class="cls-3" d="M92.06,110.31A6.47,6.47,0,0,0,88,112.62a5.44,5.44,0,0,0,4.45,1.64,5.52,5.52,0,0,0,3.83-2.57A4.78,4.78,0,0,0,92.06,110.31Z"/><path class="cls-3" d="M81.19,91.65,79.9,91.6c0,.14-.33,14.2,20.88,20.53l.37-1.24C81,104.86,81.17,92.19,81.19,91.65Z"/><path class="cls-3" d="M125.44,96.16a5.6,5.6,0,0,0,4.33-1.63A5.41,5.41,0,0,0,131,90a6.46,6.46,0,0,0-4.25,2A4.81,4.81,0,0,0,125.44,96.16Z"/><path class="cls-3" d="M118.68,91.93a5.6,5.6,0,0,0,2.61,3.82,4.8,4.8,0,0,0,1.35-4.22,6.48,6.48,0,0,0-2.35-4.06A5.43,5.43,0,0,0,118.68,91.93Z"/><path class="cls-3" d="M118.07,94a5.43,5.43,0,0,0-2.18,4.21,5.6,5.6,0,0,0,2.09,4.13,4.8,4.8,0,0,0,1.88-4A6.42,6.42,0,0,0,118.07,94Z"/><path class="cls-3" d="M111.34,101.86a5.58,5.58,0,0,0,1.69,4.3,4.8,4.8,0,0,0,2.25-3.81,6.48,6.48,0,0,0-1.38-4.48A5.43,5.43,0,0,0,111.34,101.86Z"/><path class="cls-3" d="M106.42,104.85a5.58,5.58,0,0,0,.38,4.6,4.81,4.81,0,0,0,3.26-3,6.5,6.5,0,0,0,0-4.69A5.44,5.44,0,0,0,106.42,104.85Z"/><path class="cls-3" d="M124.53,90.36a5.54,5.54,0,0,0,2.69-3.75,5.44,5.44,0,0,0-1.5-4.5,6.49,6.49,0,0,0-2.44,4A4.81,4.81,0,0,0,124.53,90.36Z"/><path class="cls-3" d="M125.68,97.64a4.79,4.79,0,0,0-2.51,3.65,5.55,5.55,0,0,0,4.61-.28,5.41,5.41,0,0,0,2.54-4A6.43,6.43,0,0,0,125.68,97.64Z"/><path class="cls-3" d="M122.42,102.81a4.78,4.78,0,0,0-3.25,3,5.55,5.55,0,0,0,4.55.75,5.42,5.42,0,0,0,3.37-3.34A6.47,6.47,0,0,0,122.42,102.81Z"/><path class="cls-3" d="M118.69,107.16a4.77,4.77,0,0,0-4,1.87,5.56,5.56,0,0,0,4.11,2.1A5.44,5.44,0,0,0,123,109,6.47,6.47,0,0,0,118.69,107.16Z"/><path class="cls-3" d="M112.77,110.34a4.78,4.78,0,0,0-4.2,1.38,5.55,5.55,0,0,0,3.83,2.58,5.41,5.41,0,0,0,4.45-1.65A6.52,6.52,0,0,0,112.77,110.34Z"/><path class="cls-3" d="M124.94,91.64l-1.3,0c0,.54.24,13.2-20,19.24l.38,1.24C125.26,105.83,124.94,91.78,124.94,91.64Z"/><polygon class="cls-3" points="112.58 97.29 111.11 85.3 119.14 77.14 107.63 75.6 102.42 65.5 102.42 65.45 97.2 75.56 85.69 77.1 93.72 85.26 92.25 97.25 102.41 91.73 102.41 91.76 112.58 97.29"/></g></svg>